<svg width="73" height="78" viewBox="0 0 73 78" fill="none" xmlns="http://www.w3.org/2000/svg">
<path fill-rule="evenodd" clip-rule="evenodd" d="M37 8C39.2091 8 41 6.20914 41 4C41 1.79086 39.2091 0 37 0C34.7909 0 33 1.79086 33 4C33 6.20914 34.7909 8 37 8ZM16 21C16 25.4183 12.4183 29 8 29C3.58172 29 0 25.4183 0 21C0 16.5817 3.58172 13 8 13C12.4183 13 16 16.5817 16 21ZM73 49.5C73 65.2401 60.2401 78 44.5 78C28.7599 78 16 65.2401 16 49.5C16 33.7599 28.7599 21 44.5 21C60.2401 21 73 33.7599 73 49.5Z" fill="url(#paint0_linear)"/>
<path fill-rule="evenodd" clip-rule="evenodd" d="M43.1641 34.4973C43.7215 34.1718 44.3547 34 45 34C45.6453 34 46.2785 34.1718 46.8359 34.4973C46.8367 34.4977 46.8374 34.4981 46.8381 34.4985L56.1714 39.8996C56.6328 40.1694 57.0284 40.5363 57.3327 40.9731C57.3976 41.0354 57.455 41.1076 57.5027 41.1891C57.548 41.2663 57.5817 41.3472 57.6044 41.4297C57.8637 41.9463 57.9994 42.5178 58 43.0979V53.9021C57.9993 54.5486 57.8309 55.1843 57.5105 55.7455C57.1902 56.3068 56.7288 56.7745 56.1714 57.1004L56.1675 57.1026L46.8381 62.5015C46.8374 62.5019 46.8367 62.5023 46.836 62.5027C46.2785 62.8281 45.6453 63 45 63C44.3547 63 43.7215 62.8281 43.164 62.5027C43.1633 62.5023 43.1626 62.5019 43.1619 62.5015L33.8325 57.1026L33.8286 57.1004C33.2712 56.7745 32.8098 56.3068 32.4895 55.7455C32.1691 55.1843 32.0007 54.5486 32 53.9021V43.0979C32.0006 42.5182 32.1361 41.9472 32.395 41.4309C32.4177 41.348 32.4515 41.2667 32.497 41.1891C32.5449 41.1073 32.6026 41.0348 32.6678 40.9723C32.972 40.5359 33.3675 40.1692 33.8286 39.8996L33.8325 39.8974L43.1619 34.4985C43.1626 34.4981 43.1633 34.4977 43.1641 34.4973ZM34 43.2285V53.9006C34.0004 54.201 34.0788 54.4954 34.2264 54.7541C34.3738 55.0122 34.5845 55.2252 34.8364 55.3728C34.8369 55.3732 34.8375 55.3735 34.8381 55.3738L44 60.6757V49.0866L34 43.2285ZM46 49.0865V60.6757L55.1619 55.3738C55.1625 55.3735 55.1631 55.3731 55.1637 55.3728C55.4155 55.2251 55.6262 55.0122 55.7736 54.7541C55.9213 54.4953 55.9997 54.2007 56 53.9001V43.2283L46 49.0865ZM54.9689 41.5145L45.8286 36.2251C45.5758 36.0773 45.2901 36 45 36C44.7099 36 44.4242 36.0773 44.1714 36.2251L44.1675 36.2273L41.237 37.9232L51.0156 43.8303L54.9689 41.5145ZM49.052 44.9807L39.4829 39.2002C39.4114 39.1569 39.3472 39.1062 39.2907 39.0495L35.031 41.5145L44.9999 47.3545L49.052 44.9807Z" fill="white"/>
<defs>
<linearGradient id="paint0_linear" x1="36.5" y1="0" x2="36.5" y2="78" gradientUnits="userSpaceOnUse">
<stop stop-color="#F76201"/>
<stop offset="1" stop-color="#FF4D00"/>
</linearGradient>
</defs>
</svg>
