<svg width="73" height="78" viewBox="0 0 73 78" fill="none" xmlns="http://www.w3.org/2000/svg">
<path fill-rule="evenodd" clip-rule="evenodd" d="M37 8C39.2091 8 41 6.20914 41 4C41 1.79086 39.2091 0 37 0C34.7909 0 33 1.79086 33 4C33 6.20914 34.7909 8 37 8ZM16 21C16 25.4183 12.4183 29 8 29C3.58172 29 0 25.4183 0 21C0 16.5817 3.58172 13 8 13C12.4183 13 16 16.5817 16 21ZM73 49.5C73 65.2401 60.2401 78 44.5 78C28.7599 78 16 65.2401 16 49.5C16 33.7599 28.7599 21 44.5 21C60.2401 21 73 33.7599 73 49.5Z" fill="url(#paint0_linear)"/>
<path d="M52.0925 46.125H50.6038C50.1618 44.4043 49.2484 42.8427 47.9675 41.6177C46.6866 40.3927 45.0894 39.5534 43.3576 39.1951C41.6258 38.8368 39.8287 38.9739 38.1705 39.5909C36.5124 40.2079 35.0596 41.2799 33.9774 42.6853C32.8951 44.0906 32.2268 45.7729 32.0483 47.5409C31.8698 49.309 32.1883 51.0919 32.9676 52.6871C33.7469 54.2823 34.9557 55.6258 36.4568 56.565C37.9578 57.5042 39.6909 58.0013 41.459 58H52.0925C53.6593 58 55.1619 57.3744 56.2697 56.2609C57.3776 55.1474 58 53.6372 58 52.0625C58 50.4878 57.3776 48.9775 56.2697 47.8641C55.1619 46.7506 53.6593 46.125 52.0925 46.125Z" stroke="white" stroke-width="2" stroke-linecap="round" stroke-linejoin="round"/>
<defs>
<linearGradient id="paint0_linear" x1="36.5" y1="0" x2="36.5" y2="78" gradientUnits="userSpaceOnUse">
<stop stop-color="#40A800"/>
<stop offset="1" stop-color="#178A00"/>
</linearGradient>
</defs>
</svg>
