<svg width="159" height="53" viewBox="0 0 159 53" fill="none" xmlns="http://www.w3.org/2000/svg">
<g clip-path="url(#clip0)">
<path d="M145.667 0.105225H12.5689C12.172 0.105225 11.6428 0.105225 11.1136 0.105225C10.7167 0.105225 10.3197 0.105225 9.92283 0.105225C8.9967 0.105225 8.20288 0.237198 7.27674 0.369172C6.35061 0.501146 5.55679 0.765093 4.76296 1.16101C3.96913 1.55694 3.30761 2.08483 2.64609 2.7447C1.98457 3.40457 1.45535 4.06444 1.05844 4.85628C0.661522 5.64812 0.396913 6.57194 0.264609 7.36378C0.132304 8.28759 0 9.21141 0 10.0033C0 10.3992 0 10.7951 0 11.191C0 11.7189 0 12.1148 0 12.6427V40.2252C0 40.7531 0 41.149 0 41.6769C0 42.0729 0 42.4688 0 42.8647C0 43.7885 0.132304 44.5804 0.264609 45.5042C0.396913 46.428 0.661522 47.2198 1.05844 48.0117C1.45535 48.9355 1.98457 49.5954 2.64609 50.2552C3.30761 50.9151 3.96913 51.443 4.76296 51.8389C5.55679 52.2348 6.35061 52.4988 7.27674 52.6307C8.20288 52.7627 8.9967 52.8947 9.92283 52.8947C10.3197 52.8947 10.7167 52.8947 11.1136 52.8947C11.6428 52.8947 12.0397 52.8947 12.5689 52.8947H145.667C146.196 52.8947 146.593 52.8947 147.123 52.8947C147.519 52.8947 147.916 52.8947 148.313 52.8947C149.239 52.8947 150.033 52.7627 150.959 52.6307C151.885 52.4988 152.679 52.2348 153.473 51.8389C154.267 51.443 154.928 50.9151 155.59 50.2552C156.252 49.5954 156.781 48.9355 157.178 48.1436C157.575 47.3518 157.839 46.56 157.972 45.6361C158.104 44.7123 158.236 43.9205 158.236 42.9967C158.236 42.6007 158.236 42.2048 158.236 41.8089C158.236 41.281 158.236 40.8851 158.236 40.3572V12.6427C158.236 12.1148 158.236 11.7189 158.236 11.191C158.236 10.7951 158.236 10.3992 158.236 10.0033C158.236 9.07944 158.104 8.28759 157.972 7.36378C157.839 6.43996 157.575 5.64812 157.178 4.85628C156.781 4.06444 156.252 3.40457 155.59 2.7447C154.928 2.08483 154.267 1.55694 153.473 1.16101C152.679 0.765093 151.885 0.501146 150.959 0.369172C150.033 0.237198 149.239 0.105225 148.313 0.105225C147.916 0.105225 147.519 0.105225 147.123 0.105225C146.726 0.105225 146.196 0.105225 145.667 0.105225Z" fill="#B7B7B7"/>
<path d="M11.1136 51.7072C10.7167 51.7072 10.3198 51.7072 9.92286 51.7072C9.12904 51.7072 8.33521 51.7072 7.40908 51.4432C6.61525 51.3112 5.82143 51.0473 5.1599 50.7833C4.49838 50.3874 3.83686 49.9915 3.30764 49.4636C2.77842 48.9357 2.24921 48.2758 1.9846 47.616C1.58768 46.9561 1.45538 46.2962 1.32307 45.3724C1.19077 44.4486 1.05847 43.5248 1.05847 42.8649C1.05847 42.601 1.05847 41.6772 1.05847 41.6772V11.1912C1.05847 11.1912 1.05847 10.2674 1.05847 10.0035C1.05847 9.34361 1.05847 8.41979 1.32307 7.49598C1.58768 6.83611 1.71999 6.04427 2.1169 5.3844C2.51381 4.72453 2.91073 4.06466 3.43995 3.53677C3.96916 3.00887 4.63069 2.61295 5.29221 2.21703C5.95373 1.82111 6.74756 1.68913 7.54138 1.55716C8.33521 1.29321 9.26134 1.29321 9.92286 1.29321H11.1136H147.123H148.313C148.975 1.29321 149.901 1.29321 150.827 1.55716C151.621 1.68913 152.282 1.95308 153.076 2.21703C153.738 2.61295 154.399 3.00887 154.929 3.53677C155.458 4.06466 155.987 4.72453 156.252 5.3844C156.648 6.04427 156.781 6.83611 156.913 7.49598C157.045 8.28782 157.178 9.21163 157.178 10.0035C157.178 10.3994 157.178 10.7953 157.178 11.1912C157.178 11.7191 157.178 12.1151 157.178 12.643V40.2255C157.178 40.7533 157.178 41.1493 157.178 41.6772C157.178 42.0731 157.178 42.469 157.178 42.8649C157.178 43.6568 157.045 44.4486 156.913 45.3724C156.781 46.1643 156.516 46.9561 156.252 47.616C155.855 48.2758 155.458 48.9357 154.929 49.4636C154.399 49.9915 153.738 50.5194 153.076 50.7833C152.415 51.1793 151.753 51.3112 150.827 51.4432C150.033 51.5752 149.107 51.5752 148.313 51.7072C147.916 51.7072 147.519 51.7072 147.123 51.7072H145.667H11.1136Z" fill="#000001"/>
<path d="M32.8115 26.8959C32.8115 23.2006 35.8545 21.485 35.9868 21.353C34.2669 18.8455 31.6208 18.5816 30.6947 18.4496C28.4455 18.1856 26.3286 19.7693 25.1379 19.7693C23.9471 19.7693 22.2272 18.4496 20.3749 18.4496C17.9934 18.4496 15.7443 19.9013 14.4212 22.0129C11.9074 26.368 13.7597 32.9667 16.2735 36.53C17.4642 38.2456 18.9196 40.2253 20.7718 40.2253C22.6241 40.0933 23.2856 39.0375 25.5348 39.0375C27.784 39.0375 28.3132 40.2253 30.2977 40.2253C32.2823 40.2253 33.4731 38.5096 34.6638 36.662C36.1191 34.6824 36.6484 32.7028 36.6484 32.5708C36.6484 32.7028 32.8115 31.251 32.8115 26.8959Z" fill="white"/>
<path d="M29.1071 16.206C30.0332 15.0182 30.827 13.3026 30.5624 11.5869C29.1071 11.5869 27.3871 12.5107 26.3287 13.8305C25.4025 14.8863 24.6087 16.6019 24.8733 18.3176C26.461 18.3176 28.1809 17.3938 29.1071 16.206Z" fill="white"/>
<path d="M55.9648 35.8703H49.7465L48.2912 40.3574H45.6451L51.5988 23.9927H54.2449L60.1986 40.3574H57.5525L55.9648 35.8703ZM50.408 33.8907H55.4356L52.9218 26.6321H52.7895L50.408 33.8907Z" fill="white"/>
<path d="M73.0321 34.4183C73.0321 38.1136 71.0475 40.4891 68.0045 40.4891C66.2846 40.4891 64.9615 39.6972 64.3 38.3775V44.3163H61.7862V28.4795H64.1677V30.4591C64.8292 29.1393 66.2846 28.3475 68.0045 28.3475C70.9152 28.2155 73.0321 30.723 73.0321 34.4183ZM70.386 34.4183C70.386 32.0428 69.1953 30.4591 67.2107 30.4591C65.3585 30.4591 64.0354 32.0428 64.0354 34.4183C64.0354 36.7938 65.3585 38.3775 67.2107 38.3775C69.1953 38.3775 70.386 36.7938 70.386 34.4183Z" fill="white"/>
<path d="M86.1303 34.4183C86.1303 38.1136 84.1457 40.4891 81.1027 40.4891C79.3827 40.4891 78.0597 39.6972 77.3982 38.3775V44.3163H74.8844V28.4795H77.2659V30.4591C77.9274 29.1393 79.3827 28.3475 81.1027 28.3475C84.1457 28.2155 86.1303 30.723 86.1303 34.4183ZM83.6165 34.4183C83.6165 32.0428 82.4258 30.4591 80.4412 30.4591C78.5889 30.4591 77.2659 32.0428 77.2659 34.4183C77.2659 36.7938 78.5889 38.3775 80.4412 38.3775C82.4258 38.3775 83.6165 36.7938 83.6165 34.4183Z" fill="white"/>
<path d="M94.8623 35.7381C94.9946 37.3218 96.5823 38.3776 98.8314 38.3776C100.948 38.3776 102.404 37.3218 102.404 35.8701C102.404 34.5504 101.478 33.8905 99.3606 33.3626L97.2438 32.8347C94.2008 32.0429 92.8777 30.7231 92.8777 28.4796C92.8777 25.7081 95.3915 23.7285 98.8314 23.7285C102.271 23.7285 104.653 25.7081 104.785 28.4796H102.271C102.139 26.8959 100.816 25.8401 98.8314 25.8401C96.8469 25.8401 95.5238 26.8959 95.5238 28.3476C95.5238 29.5354 96.45 30.1952 98.5668 30.7231L100.419 31.119C103.727 31.9109 105.182 33.2306 105.182 35.6061C105.182 38.6415 102.668 40.6212 98.8314 40.6212C95.1269 40.6212 92.7454 38.7735 92.6131 35.7381H94.8623Z" fill="white"/>
<path d="M110.21 25.5764V28.3479H112.459V30.3275H110.21V36.9262C110.21 37.9819 110.607 38.3779 111.665 38.3779C111.93 38.3779 112.327 38.3779 112.459 38.3779V40.3575C112.194 40.4894 111.665 40.4894 111.136 40.4894C108.754 40.4894 107.828 39.5656 107.828 37.3221V30.4594H106.108V28.4798H107.828V25.7084H110.21V25.5764Z" fill="white"/>
<path d="M113.914 34.4184C113.914 30.7232 116.163 28.3477 119.603 28.3477C123.043 28.3477 125.292 30.7232 125.292 34.4184C125.292 38.2457 123.043 40.4892 119.603 40.4892C116.031 40.4892 113.914 38.1137 113.914 34.4184ZM122.779 34.4184C122.779 31.779 121.588 30.3273 119.603 30.3273C117.619 30.3273 116.428 31.779 116.428 34.4184C116.428 37.0579 117.619 38.5096 119.603 38.5096C121.588 38.5096 122.779 36.9259 122.779 34.4184Z" fill="white"/>
<path d="M127.277 28.3477H129.658V30.4592C130.055 29.1395 131.114 28.3477 132.569 28.3477C132.966 28.3477 133.231 28.3477 133.363 28.4796V30.7232C133.231 30.5912 132.701 30.5912 132.305 30.5912C130.717 30.5912 129.791 31.647 129.791 33.3627V40.4892H127.277V28.3477Z" fill="white"/>
<path d="M144.741 36.7941C144.344 38.9057 142.227 40.4894 139.581 40.4894C136.141 40.4894 133.892 38.1139 133.892 34.4186C133.892 30.7233 136.009 28.2158 139.449 28.2158C142.757 28.2158 144.873 30.4594 144.873 34.1546V34.9465H136.406V35.0785C136.406 37.0581 137.729 38.5098 139.581 38.5098C140.904 38.5098 141.963 37.8499 142.36 36.7941H144.741ZM136.406 33.2308H142.36C142.36 31.3832 141.169 30.1954 139.449 30.1954C137.729 30.1954 136.538 31.5152 136.406 33.2308Z" fill="white"/>
<path d="M48.5557 15.0181H49.6141C50.5403 15.0181 51.0695 14.4902 51.0695 13.6984C51.0695 12.9065 50.5403 12.5106 49.6141 12.5106C48.688 12.5106 48.0265 13.0385 48.0265 13.6984H46.8357C46.968 12.2467 48.0265 11.4548 49.6141 11.4548C51.2018 11.4548 52.2602 12.3786 52.2602 13.5664C52.2602 14.4902 51.731 15.1501 50.8049 15.414V15.546C51.8633 15.678 52.5248 16.3379 52.5248 17.3937C52.5248 18.7134 51.2018 19.7692 49.6141 19.7692C47.8942 19.7692 46.7034 18.8454 46.7034 17.3937H47.8942C48.0265 18.1855 48.688 18.5814 49.7464 18.5814C50.8049 18.5814 51.4664 18.0535 51.4664 17.2617C51.4664 16.4698 50.8049 15.9419 49.7464 15.9419H48.688V15.0181H48.5557Z" fill="white"/>
<path d="M53.9802 17.7897C53.9802 16.7339 54.774 16.074 56.2294 16.074L57.817 15.9421V15.4142C57.817 14.7543 57.4201 14.4904 56.6263 14.4904C55.9647 14.4904 55.5678 14.7543 55.4355 15.1502H54.2448C54.3771 14.0944 55.3032 13.4346 56.6263 13.4346C58.0816 13.4346 59.0077 14.2264 59.0077 15.4142V19.5054H57.817V18.7135H57.6847C57.2878 19.3734 56.6263 19.6373 55.8324 19.6373C54.9063 19.6373 53.9802 18.8455 53.9802 17.7897ZM57.817 17.2618V16.7339L56.3617 16.8659C55.5678 16.8659 55.1709 17.2618 55.1709 17.6577C55.1709 18.1856 55.7001 18.4496 56.2294 18.4496C57.1555 18.5815 57.817 18.0536 57.817 17.2618Z" fill="white"/>
<path d="M62.1831 14.49V19.505H60.9923V13.5662H64.9615V14.49H62.1831Z" fill="white"/>
<path d="M71.9736 16.4699C71.9736 18.3175 71.0475 19.5053 69.4598 19.5053C68.666 19.5053 67.8721 19.1093 67.6075 18.4495H67.4752V21.3529H66.2845V13.4345H67.4752V14.3583H67.6075C68.0044 13.6984 68.666 13.3025 69.4598 13.3025C71.0475 13.4345 71.9736 14.6222 71.9736 16.4699ZM70.7828 16.4699C70.7828 15.1501 70.1213 14.4903 69.1952 14.4903C68.2691 14.4903 67.6075 15.2821 67.6075 16.4699C67.6075 17.6576 68.2691 18.4495 69.1952 18.4495C70.2536 18.5814 70.7828 17.7896 70.7828 16.4699Z" fill="white"/>
<path d="M73.5613 21.6166V20.5608C73.6936 20.5608 73.8259 20.5608 73.9582 20.5608C74.4874 20.5608 74.8843 20.2968 75.0166 19.7689L75.1489 19.505L73.0321 13.5662H74.3551L75.8105 18.3172H75.9428L77.3981 13.5662H78.5889L76.3397 19.7689C75.8105 21.2206 75.2812 21.6166 74.0905 21.6166C73.9582 21.6166 73.6936 21.6166 73.5613 21.6166Z" fill="white"/>
<path d="M79.5149 17.7897H80.7057C80.838 18.3176 81.3672 18.5815 82.0287 18.5815C82.8225 18.5815 83.3517 18.1856 83.3517 17.6577C83.3517 17.1298 82.9548 16.8659 82.0287 16.8659H81.1026V15.9421H82.0287C82.6902 15.9421 83.0871 15.6781 83.0871 15.1502C83.0871 14.7543 82.6902 14.3584 82.0287 14.3584C81.3672 14.3584 80.838 14.6223 80.838 15.1502H79.6472C79.7795 14.0944 80.7057 13.4346 82.0287 13.4346C83.484 13.4346 84.2779 14.0944 84.2779 15.0183C84.2779 15.6781 83.881 16.074 83.3517 16.206V16.338C84.1456 16.47 84.5425 16.9979 84.5425 17.6577C84.5425 18.8455 83.6163 19.5054 82.161 19.5054C80.7057 19.6373 79.6472 18.9775 79.5149 17.7897Z" fill="white"/>
<path d="M86.1301 19.505V13.5662H87.3209V17.6573L90.0993 13.5662H91.29V19.505H90.0993V15.4138H89.967L87.1886 19.505H86.1301Z" fill="white"/>
<path d="M97.6406 14.49H95.7884V19.505H94.5976V14.49H92.7453V13.5662H97.6406V14.49Z" fill="white"/>
<path d="M103.991 17.9217C103.727 18.9775 102.801 19.6373 101.345 19.6373C99.6252 19.6373 98.5668 18.4496 98.5668 16.6019C98.5668 14.7543 99.6252 13.4346 101.345 13.4346C103.065 13.4346 103.991 14.6223 103.991 16.47V16.8659H99.7575C99.7575 17.9217 100.419 18.5815 101.345 18.5815C102.007 18.5815 102.536 18.3176 102.801 17.9217H103.991ZM99.8898 15.9421H102.933C102.933 15.0183 102.271 14.3584 101.477 14.3584C100.551 14.4904 99.8898 15.0183 99.8898 15.9421Z" fill="white"/>
<path d="M109.019 13.5662H111.665C112.856 13.5662 113.517 14.0941 113.517 15.0179C113.517 15.6777 113.12 16.2056 112.459 16.3376V16.4696C113.253 16.6016 113.782 17.1295 113.782 17.7893C113.782 18.8451 112.988 19.505 111.665 19.505H108.887V13.5662H109.019ZM110.21 14.49V15.9417H111.4C112.062 15.9417 112.459 15.6777 112.459 15.1498C112.459 14.622 112.194 14.358 111.533 14.358H110.21V14.49ZM110.21 16.8655V18.5812H111.665C112.326 18.5812 112.723 18.3172 112.723 17.6573C112.723 16.9975 112.326 16.7335 111.533 16.7335H110.21V16.8655Z" fill="white"/>
</g>
<defs>
<clipPath id="clip0">
<rect width="158.368" height="52.7895" fill="white" transform="translate(0 0.105225)"/>
</clipPath>
</defs>
</svg>
