<svg width="56" height="56" viewBox="0 0 56 56" fill="none" xmlns="http://www.w3.org/2000/svg">
<path fill-rule="evenodd" clip-rule="evenodd" d="M41.0795 24.3172H14.6657C14.0825 24.3172 13.5679 23.9242 13.3758 23.3309C13.1769 22.7377 13.3553 22.0777 13.8081 21.6847L26.9601 10.2646C27.461 9.82704 28.1745 9.82704 28.6753 10.2571L41.9371 21.6772C42.3899 22.0703 42.5683 22.7303 42.3762 23.3235C42.1841 23.9168 41.6627 24.3172 41.0795 24.3172ZM37.1552 21.351L27.8246 13.3124L18.5626 21.351H37.1552ZM13.109 39.3338H42.6376C43.3992 39.3338 44.0098 40.0012 44.0098 40.8169C44.0098 41.6327 43.3923 42.3001 42.6376 42.3001H13.109C12.3543 42.3001 11.7368 41.6327 11.7368 40.8169C11.7368 40.0012 12.3543 39.3338 13.109 39.3338ZM16.471 27.2018V36.3601C16.471 37.1758 17.0885 37.8433 17.8432 37.8433C18.5978 37.8433 19.2153 37.1758 19.2153 36.3601V27.2018C19.2153 26.3861 18.5978 25.7187 17.8432 25.7187C17.0885 25.7187 16.471 26.3787 16.471 27.2018ZM36.5379 36.3601V27.2018C36.5379 26.3787 37.1485 25.7187 37.91 25.7187C38.6647 25.7187 39.2822 26.3861 39.2822 27.2018V36.3601C39.2822 37.1758 38.6647 37.8433 37.91 37.8433C37.1553 37.8433 36.5379 37.1758 36.5379 36.3601ZM29.8489 27.2018V36.3601C29.8489 37.1758 30.4664 37.8433 31.2211 37.8433C31.9757 37.8433 32.5932 37.1758 32.5932 36.3601V27.2018C32.5932 26.3861 31.9757 25.7187 31.2211 25.7187C30.4664 25.7187 29.8489 26.3787 29.8489 27.2018ZM23.1608 36.3601V27.2018C23.1608 26.3787 23.7783 25.7187 24.533 25.7187C25.2876 25.7187 25.9051 26.3861 25.9051 27.2018V36.3601C25.9051 37.1758 25.2876 37.8433 24.533 37.8433C23.7783 37.8433 23.1608 37.1758 23.1608 36.3601Z" fill="#F76201"/>
<path d="M13.3758 23.3309L13.8515 23.1769L13.8499 23.1719L13.3758 23.3309ZM13.8081 21.6847L14.1358 22.0623L14.1359 22.0622L13.8081 21.6847ZM26.9601 10.2646L27.2879 10.6421L27.2891 10.6411L26.9601 10.2646ZM28.6753 10.2571L29.0016 9.87826L29.0011 9.87783L28.6753 10.2571ZM41.9371 21.6772L42.2649 21.2996L42.2634 21.2984L41.9371 21.6772ZM42.3762 23.3235L41.9005 23.1695V23.1695L42.3762 23.3235ZM27.8246 13.3124L28.1509 12.9336L27.8234 12.6514L27.4968 12.9348L27.8246 13.3124ZM37.1552 21.351V21.851H38.5016L37.4815 20.9721L37.1552 21.351ZM18.5626 21.351L18.2348 20.9733L17.2236 21.851H18.5626V21.351ZM14.6657 24.8172H41.0795V23.8172H14.6657V24.8172ZM12.9002 23.485C13.1529 24.2655 13.8464 24.8172 14.6657 24.8172V23.8172C14.3186 23.8172 13.983 23.5829 13.8515 23.1769L12.9002 23.485ZM13.4803 21.3071C12.8701 21.8367 12.6403 22.7103 12.9018 23.4899L13.8499 23.1719C13.7134 22.765 13.8404 22.3187 14.1358 22.0623L13.4803 21.3071ZM26.6323 9.88702L13.4802 21.3071L14.1359 22.0622L27.2879 10.6421L26.6323 9.88702ZM29.0011 9.87783C28.3124 9.28644 27.32 9.28626 26.6312 9.88801L27.2891 10.6411C27.6019 10.3678 28.0365 10.3676 28.3496 10.6365L29.0011 9.87783ZM42.2634 21.2984L29.0016 9.87826L28.349 10.636L41.6109 22.0561L42.2634 21.2984ZM42.8519 23.4775C43.1034 22.701 42.8751 21.8293 42.2649 21.2996L41.6094 22.0548C41.9048 22.3113 42.0333 22.7596 41.9005 23.1695L42.8519 23.4775ZM41.0795 24.8172C41.9 24.8172 42.5996 24.2568 42.8519 23.4775L41.9005 23.1695C41.7687 23.5767 41.4254 23.8172 41.0795 23.8172V24.8172ZM27.4982 13.6912L36.8288 21.7298L37.4815 20.9721L28.1509 12.9336L27.4982 13.6912ZM18.8903 21.7286L28.1523 13.69L27.4968 12.9348L18.2348 20.9733L18.8903 21.7286ZM37.1552 20.851H18.5626V21.851H37.1552V20.851ZM42.6376 38.8338H13.109V39.8338H42.6376V38.8338ZM44.5098 40.8169C44.5098 39.7641 43.7128 38.8338 42.6376 38.8338V39.8338C43.0856 39.8338 43.5098 40.2383 43.5098 40.8169H44.5098ZM42.6376 42.8001C43.7044 42.8001 44.5098 41.8715 44.5098 40.8169H43.5098C43.5098 41.3938 43.0803 41.8001 42.6376 41.8001V42.8001ZM13.109 42.8001H42.6376V41.8001H13.109V42.8001ZM11.2368 40.8169C11.2368 41.8715 12.0422 42.8001 13.109 42.8001V41.8001C12.6663 41.8001 12.2368 41.3938 12.2368 40.8169H11.2368ZM13.109 38.8338C12.0422 38.8338 11.2368 39.7624 11.2368 40.8169H12.2368C12.2368 40.24 12.6663 39.8338 13.109 39.8338V38.8338ZM16.971 36.3601V27.2018H15.971V36.3601H16.971ZM17.8432 37.3433C17.4005 37.3433 16.971 36.937 16.971 36.3601H15.971C15.971 37.4147 16.7764 38.3433 17.8432 38.3433V37.3433ZM18.7153 36.3601C18.7153 36.937 18.2858 37.3433 17.8432 37.3433V38.3433C18.9099 38.3433 19.7153 37.4147 19.7153 36.3601H18.7153ZM18.7153 27.2018V36.3601H19.7153V27.2018H18.7153ZM17.8432 26.2187C18.2858 26.2187 18.7153 26.6249 18.7153 27.2018H19.7153C19.7153 26.1473 18.9099 25.2187 17.8432 25.2187V26.2187ZM16.971 27.2018C16.971 26.6192 17.399 26.2187 17.8432 26.2187V25.2187C16.778 25.2187 15.971 26.1382 15.971 27.2018H16.971ZM36.0379 27.2018V36.3601H37.0379V27.2018H36.0379ZM37.91 25.2187C36.8364 25.2187 36.0379 26.1399 36.0379 27.2018H37.0379C37.0379 26.6175 37.4605 26.2187 37.91 26.2187V25.2187ZM39.7822 27.2018C39.7822 26.1473 38.9768 25.2187 37.91 25.2187V26.2187C38.3527 26.2187 38.7822 26.6249 38.7822 27.2018H39.7822ZM39.7822 36.3601V27.2018H38.7822V36.3601H39.7822ZM37.91 38.3433C38.9768 38.3433 39.7822 37.4147 39.7822 36.3601H38.7822C38.7822 36.937 38.3527 37.3433 37.91 37.3433V38.3433ZM36.0379 36.3601C36.0379 37.4147 36.8433 38.3433 37.91 38.3433V37.3433C37.4674 37.3433 37.0379 36.937 37.0379 36.3601H36.0379ZM30.3489 36.3601V27.2018H29.3489V36.3601H30.3489ZM31.2211 37.3433C30.7784 37.3433 30.3489 36.937 30.3489 36.3601H29.3489C29.3489 37.4147 30.1543 38.3433 31.2211 38.3433V37.3433ZM32.0932 36.3601C32.0932 36.937 31.6637 37.3433 31.2211 37.3433V38.3433C32.2878 38.3433 33.0932 37.4147 33.0932 36.3601H32.0932ZM32.0932 27.2018V36.3601H33.0932V27.2018H32.0932ZM31.2211 26.2187C31.6637 26.2187 32.0932 26.6249 32.0932 27.2018H33.0932C33.0932 26.1473 32.2878 25.2187 31.2211 25.2187V26.2187ZM30.3489 27.2018C30.3489 26.6192 30.7769 26.2187 31.2211 26.2187V25.2187C30.1559 25.2187 29.3489 26.1382 29.3489 27.2018H30.3489ZM22.6608 27.2018V36.3601H23.6608V27.2018H22.6608ZM24.533 25.2187C23.4678 25.2187 22.6608 26.1382 22.6608 27.2018H23.6608C23.6608 26.6192 24.0888 26.2187 24.533 26.2187V25.2187ZM26.4051 27.2018C26.4051 26.1473 25.5997 25.2187 24.533 25.2187V26.2187C24.9756 26.2187 25.4051 26.6249 25.4051 27.2018H26.4051ZM26.4051 36.3601V27.2018H25.4051V36.3601H26.4051ZM24.533 38.3433C25.5997 38.3433 26.4051 37.4147 26.4051 36.3601H25.4051C25.4051 36.937 24.9756 37.3433 24.533 37.3433V38.3433ZM22.6608 36.3601C22.6608 37.4147 23.4662 38.3433 24.533 38.3433V37.3433C24.0903 37.3433 23.6608 36.937 23.6608 36.3601H22.6608Z" fill="white"/>
<circle cx="28" cy="28" r="27" stroke="#FF7D2D" stroke-width="2"/>
</svg>
