<svg width="56" height="56" viewBox="0 0 56 56" fill="none" xmlns="http://www.w3.org/2000/svg">
<path fill-rule="evenodd" clip-rule="evenodd" d="M17.9354 9.93549C17.4484 9.93549 17.0537 10.3399 17.0537 10.8387V19.4931C14.4687 20.5651 12.6452 23.1612 12.6452 26.1936V40.6452C12.6452 41.6429 13.4347 42.4516 14.4086 42.4516H24.9892C25.9631 42.4516 26.7526 41.6429 26.7526 40.6452V26.1936C26.7526 23.1611 24.9291 20.565 22.344 19.4931V10.8387C22.344 10.3399 21.9492 9.93549 21.4623 9.93549H17.9354ZM20.5806 19.8823L20.5806 19.8709V17.1613H18.8171V19.0238L18.8172 19.0238V20.8492C16.3151 21.2792 14.4086 23.5084 14.4086 26.1936V27.0964H24.9892V26.1936C24.9892 23.5084 23.0827 21.2792 20.5806 20.8492V19.8823ZM24.9892 28.9029H14.4086V34.3226H24.9892V28.9029ZM14.4086 40.6452V36.129H24.9892V40.6452H14.4086ZM20.5806 11.7419V15.3548H18.8171V11.7419H20.5806ZM33.9243 9.93554C33.4373 9.93554 33.0426 10.3399 33.0426 10.8388V19.4932C30.4576 20.5651 28.6341 23.1613 28.6341 26.1937V40.6453C28.6341 41.6429 29.4236 42.4517 30.3975 42.4517H40.9781C41.952 42.4517 42.7415 41.6429 42.7415 40.6453V26.1937C42.7415 23.1612 40.918 20.565 38.3329 19.4931V10.8388C38.3329 10.3399 37.9381 9.93554 37.4512 9.93554H33.9243ZM36.5695 19.8823L36.5695 19.871V17.1613H34.806V19.0238L34.8061 19.0238V20.8493C32.304 21.2793 30.3975 23.5084 30.3975 26.1937V27.0965H40.9781V26.1937C40.9781 23.5084 39.0716 21.2793 36.5695 20.8493V19.8823ZM40.9781 28.903H30.3975V34.3224H40.9781V28.903ZM30.3975 40.6453V36.1289H40.9781V40.6453H30.3975ZM36.5695 11.742V15.3549H34.806V11.742H36.5695Z" fill="#BFD243"/>
<circle cx="28" cy="28" r="27" stroke="#BFD243" stroke-width="2"/>
</svg>
