<svg width="56" height="56" viewBox="0 0 56 56" fill="none" xmlns="http://www.w3.org/2000/svg">
<path fill-rule="evenodd" clip-rule="evenodd" d="M23.193 15.6968C21.2092 15.8812 19.7007 17.4493 19.6266 19.309L19.5945 20.1144H14.6694C14.851 23.1461 16.8531 25.6813 19.584 26.6077L20.19 26.8133L20.1473 27.4596C20.1357 27.6363 20.1297 27.8147 20.1297 27.9945V31.5382C20.1297 35.8902 23.6101 39.4182 27.9033 39.4182C32.1966 39.4182 35.6769 35.8902 35.6769 31.5382V27.9945C35.6769 27.8146 35.671 27.6363 35.6593 27.4596L35.6166 26.8132L36.2226 26.6076C38.9534 25.6812 40.9555 23.146 41.1371 20.1144H36.212L36.1799 19.309C36.1058 17.4493 34.5972 15.8812 32.6134 15.6968V20.1144H23.193V15.6968ZM18.0653 18.4359C18.56 15.8837 20.8726 14.0001 23.5854 14.0001C23.7558 14.0001 23.9247 14.0075 24.0917 14.022L24.8489 14.0878V18.4359H30.9575V14.0878L31.7148 14.022C31.8817 14.0075 32.0506 14.0001 32.2211 14.0001C34.9338 14.0001 37.2465 15.8837 37.7411 18.4359H42.7596L42.7966 19.2358C42.8031 19.3777 42.8065 19.5205 42.8065 19.6639C42.8065 23.4126 40.5457 26.6242 37.3328 27.9775L37.3328 27.9945V31.5382C37.3328 36.8173 33.1111 41.0968 27.9033 41.0968C22.6955 41.0968 18.4738 36.8173 18.4738 31.5382V27.9945L18.4738 27.9775C15.2608 26.6243 13 23.4127 13 19.6639C13 19.5204 13.0033 19.3777 13.0099 19.2358L13.0469 18.4359H18.0653ZM25.1889 27.3585C25.1889 28.1299 24.5635 28.7553 23.7921 28.7553C23.0206 28.7553 22.3953 28.1299 22.3953 27.3585C22.3953 26.587 23.0206 25.9617 23.7921 25.9617C24.5635 25.9617 25.1889 26.587 25.1889 27.3585ZM32.1168 28.7553C32.8883 28.7553 33.5136 28.1299 33.5136 27.3585C33.5136 26.587 32.8883 25.9617 32.1168 25.9617C31.3454 25.9617 30.72 26.587 30.72 27.3585C30.72 28.1299 31.3454 28.7553 32.1168 28.7553Z" fill="#A4D54D"/>
<circle cx="28" cy="28" r="27" stroke="#A4D54D" stroke-width="2"/>
</svg>
