<svg width="179" height="54" viewBox="0 0 179 54" fill="none" xmlns="http://www.w3.org/2000/svg">
<path d="M172.161 53.097H6.83873C3.13551 53.097 0.22583 50.0566 0.22583 46.4873V6.82939C0.22583 3.12798 3.26777 0.219727 6.83873 0.219727H172.161C175.865 0.219727 178.774 3.26017 178.774 6.82939V46.4873C178.774 50.0566 175.865 53.097 172.161 53.097Z" fill="black"/>
<path d="M172.161 1.27727C175.203 1.27727 177.716 3.78894 177.716 6.82939V46.4873C177.716 49.5278 175.203 52.0395 172.161 52.0395H6.83873C3.7968 52.0395 1.28389 49.5278 1.28389 46.4873V6.82939C1.28389 3.78894 3.7968 1.27727 6.83873 1.27727H172.161ZM172.161 0.219727H6.83873C3.13551 0.219727 0.22583 3.26017 0.22583 6.82939V46.4873C0.22583 50.1888 3.26777 53.097 6.83873 53.097H172.161C175.865 53.097 178.774 50.0566 178.774 46.4873V6.82939C178.774 3.26017 175.865 0.219727 172.161 0.219727Z" fill="#A6A6A6"/>
<path d="M90.2935 29.0373C87.1194 29.0373 84.6065 31.4168 84.6065 34.7216C84.6065 37.8942 87.1194 40.4059 90.2935 40.4059C93.4677 40.4059 95.9806 38.0264 95.9806 34.7216C95.9806 31.2846 93.4677 29.0373 90.2935 29.0373ZM90.2935 38.0264C88.5742 38.0264 87.1194 36.5723 87.1194 34.5894C87.1194 32.6065 88.5742 31.1524 90.2935 31.1524C92.0129 31.1524 93.4677 32.4743 93.4677 34.5894C93.4677 36.5723 92.0129 38.0264 90.2935 38.0264ZM77.9936 29.0373C74.8194 29.0373 72.3064 31.4168 72.3064 34.7216C72.3064 37.8942 74.8194 40.4059 77.9936 40.4059C81.1677 40.4059 83.6806 38.0264 83.6806 34.7216C83.6806 31.2846 81.1677 29.0373 77.9936 29.0373ZM77.9936 38.0264C76.2742 38.0264 74.8194 36.5723 74.8194 34.5894C74.8194 32.6065 76.2742 31.1524 77.9936 31.1524C79.7129 31.1524 81.1677 32.4743 81.1677 34.5894C81.1677 36.5723 79.7129 38.0264 77.9936 38.0264ZM63.3129 30.7558V33.1353H69C68.8677 34.4572 68.3387 35.5148 67.6774 36.1757C66.8839 36.9689 65.5613 37.8943 63.3129 37.8943C59.7419 37.8943 57.0968 35.1182 57.0968 31.549C57.0968 27.9798 59.8742 25.2037 63.3129 25.2037C65.1645 25.2037 66.6194 25.9969 67.6774 26.9222L69.3968 25.2037C67.9419 23.8818 66.0903 22.8242 63.4452 22.8242C58.6839 22.8242 54.5839 26.79 54.5839 31.549C54.5839 36.3079 58.6839 40.2737 63.4452 40.2737C66.0903 40.2737 67.9419 39.4806 69.529 37.7621C71.1161 36.1757 71.6452 33.9285 71.6452 32.2099C71.6452 31.6812 71.6452 31.1524 71.5129 30.7558H63.3129V30.7558ZM123.358 32.6065C122.829 31.2846 121.506 29.0373 118.597 29.0373C115.687 29.0373 113.306 31.2846 113.306 34.7216C113.306 37.8942 115.687 40.4059 118.861 40.4059C121.374 40.4059 122.961 38.8196 123.49 37.8943L121.639 36.5723C120.977 37.4977 120.184 38.1586 118.861 38.1586C117.539 38.1586 116.745 37.6299 116.084 36.4401L123.623 33.2675L123.358 32.6065ZM115.687 34.4572C115.687 32.3421 117.406 31.1524 118.597 31.1524C119.523 31.1524 120.448 31.6812 120.713 32.3421L115.687 34.4572ZM109.471 39.8771H111.984V23.353H109.471V39.8771ZM105.503 30.227C104.842 29.5661 103.784 28.9051 102.461 28.9051C99.6839 28.9051 97.0387 31.4168 97.0387 34.5894C97.0387 37.7621 99.5516 40.1415 102.461 40.1415C103.784 40.1415 104.842 39.4806 105.371 38.8196H105.503V39.6128C105.503 41.7279 104.313 42.9176 102.461 42.9176C101.006 42.9176 99.9484 41.86 99.6839 40.9347L97.5677 41.86C98.229 43.3142 99.8161 45.1649 102.594 45.1649C105.503 45.1649 107.884 43.4464 107.884 39.3484V29.3017H105.503V30.227V30.227ZM102.594 38.0264C100.874 38.0264 99.4194 36.5723 99.4194 34.5894C99.4194 32.6065 100.874 31.1524 102.594 31.1524C104.313 31.1524 105.635 32.6065 105.635 34.5894C105.635 36.5723 104.313 38.0264 102.594 38.0264ZM134.865 23.353H128.913V39.8771H131.426V33.6641H134.865C137.642 33.6641 140.287 31.6812 140.287 28.5085C140.287 25.3359 137.642 23.353 134.865 23.353ZM134.997 31.2846H131.426V25.6003H134.997C136.848 25.6003 137.906 27.1866 137.906 28.3763C137.774 29.8305 136.716 31.2846 134.997 31.2846ZM150.206 28.9051C148.355 28.9051 146.503 29.6983 145.842 31.4168L148.09 32.3421C148.619 31.4168 149.413 31.1524 150.339 31.1524C151.661 31.1524 152.852 31.9456 152.984 33.2675V33.3997C152.587 33.1353 151.529 32.7387 150.471 32.7387C148.09 32.7387 145.71 34.0606 145.71 36.4401C145.71 38.6874 147.694 40.1415 149.81 40.1415C151.529 40.1415 152.323 39.3484 152.984 38.5552H153.116V39.8771H155.497V33.5319C155.232 30.6236 152.984 28.9051 150.206 28.9051ZM149.942 38.0264C149.148 38.0264 147.958 37.6299 147.958 36.5723C147.958 35.2504 149.413 34.8538 150.603 34.8538C151.661 34.8538 152.19 35.1182 152.852 35.3826C152.587 36.9689 151.265 38.0264 149.942 38.0264ZM163.829 29.3017L161.052 36.4401H160.919L158.01 29.3017H155.365L159.729 39.3484L157.216 44.9005H159.729L166.474 29.3017H163.829ZM141.61 39.8771H144.123V23.353H141.61V39.8771Z" fill="white"/>
<path d="M13.9806 10.1335C13.5839 10.5301 13.3193 11.1911 13.3193 11.9842V41.1989C13.3193 41.9921 13.5839 42.6531 13.9806 43.0497L14.1129 43.1818L30.5129 26.7899V26.6577V26.5255L13.9806 10.1335Z" fill="url(#paint0_linear)"/>
<path d="M35.9355 32.3424L30.5129 26.9225V26.6581V26.5259L35.9355 21.106L36.0678 21.2382L42.5484 24.9396C44.4 25.9971 44.4 27.7156 42.5484 28.7732L35.9355 32.3424Z" fill="url(#paint1_linear)"/>
<path d="M36.0677 32.2101L30.5129 26.658L13.9807 43.1821C14.6419 43.8431 15.5677 43.8431 16.7581 43.3143L36.0677 32.2101Z" fill="url(#paint2_linear)"/>
<path d="M36.0677 21.1058L16.7581 10.1338C15.5677 9.47281 14.6419 9.605 13.9807 10.266L30.5129 26.6579L36.0677 21.1058Z" fill="url(#paint3_linear)"/>
<path opacity="0.2" d="M35.9355 32.0779L16.7581 42.9177C15.7 43.5787 14.7742 43.4465 14.1129 42.9177L13.9807 43.0499L14.1129 43.1821C14.7742 43.7109 15.7 43.8431 16.7581 43.1821L35.9355 32.0779Z" fill="black"/>
<path opacity="0.12" d="M13.9807 42.9178C13.5839 42.5213 13.4516 41.8603 13.4516 41.0671V41.1993C13.4516 41.9925 13.7161 42.6535 14.1129 43.05V42.9178H13.9807Z" fill="black"/>
<path opacity="0.12" d="M42.5484 28.3765L35.9355 32.0779L36.0677 32.2101L42.5484 28.5087C43.4742 27.9799 43.8709 27.3189 43.8709 26.658C43.8709 27.3189 43.3419 27.8477 42.5484 28.3765Z" fill="black"/>
<path opacity="0.25" d="M16.7581 10.2659L42.5484 24.9394C43.342 25.4682 43.871 25.9969 43.871 26.6579C43.871 25.9969 43.4742 25.336 42.5484 24.8072L16.7581 10.1337C14.9065 9.0762 13.4516 10.0016 13.4516 12.1166V12.2488C13.4516 10.1337 14.9065 9.20839 16.7581 10.2659Z" fill="white"/>
<path d="M55.9764 19.2508H55.051V16.5964H55.8442C56.5051 16.0655 56.9017 15.0037 56.9017 13.5438V9.56226H62.1893V16.5964H63.1146V19.2508H62.1893V17.5254H56.1085V19.2508H55.9764ZM57.827 13.5438C57.827 14.7383 57.5626 15.8001 57.0339 16.5964H60.9996V10.624H57.6948V13.5438H57.827Z" fill="white" stroke="white" stroke-width="0.2" stroke-miterlimit="10"/>
<path d="M70.9139 16.4638C70.1207 17.2601 69.1954 17.6583 68.0057 17.6583C66.816 17.6583 65.8907 17.2601 65.0975 16.4638C64.3044 15.6675 63.9078 14.7385 63.9078 13.544C63.9078 12.3495 64.3044 11.4205 65.0975 10.6242C65.8907 9.82784 66.816 9.42969 68.0057 9.42969C69.1954 9.42969 70.1207 9.82784 70.9139 10.6242C71.707 11.4205 72.1036 12.3495 72.1036 13.544C72.1036 14.7385 71.707 15.6675 70.9139 16.4638ZM65.8907 15.8002C66.4194 16.3311 67.2126 16.7292 68.0057 16.7292C68.7988 16.7292 69.592 16.4638 70.1207 15.8002C70.6495 15.2693 71.0461 14.473 71.0461 13.544C71.0461 12.6149 70.7817 11.8186 70.1207 11.2878C69.592 10.7569 68.7988 10.3587 68.0057 10.3587C67.2126 10.3587 66.4194 10.6242 65.8907 11.2878C65.3619 11.8186 64.9653 12.6149 64.9653 13.544C64.9653 14.473 65.2297 15.2693 65.8907 15.8002Z" fill="white" stroke="white" stroke-width="0.2" stroke-miterlimit="10"/>
<path d="M77.259 17.6583C76.0693 17.6583 75.144 17.2601 74.3508 16.4638C73.5577 15.6675 73.1611 14.7385 73.1611 13.544C73.1611 12.3495 73.5577 11.4205 74.3508 10.6242C75.144 9.82784 76.0693 9.42969 77.259 9.42969C78.4487 9.42969 79.3741 9.82785 80.1672 10.7569L79.5063 11.4205C78.9775 10.7569 78.1844 10.3587 77.259 10.3587C76.3337 10.3587 75.6727 10.6242 75.0118 11.2878C74.3508 11.8186 74.0865 12.6149 74.0865 13.544C74.0865 14.473 74.3508 15.2693 75.0118 15.8002C75.5406 16.3311 76.3337 16.7292 77.259 16.7292C78.1844 16.7292 78.9775 16.3311 79.6384 15.5348L80.2994 16.1984C79.9028 16.5965 79.5063 16.9947 78.9775 17.2601C78.4487 17.5256 77.92 17.6583 77.259 17.6583Z" fill="white" stroke="white" stroke-width="0.2" stroke-miterlimit="10"/>
<path d="M84.5294 17.5254H83.4719V10.4913H81.2247V9.56226H86.6445V10.4913H84.3972V17.5254H84.5294Z" fill="white" stroke="white" stroke-width="0.2" stroke-miterlimit="10"/>
<path d="M93.6506 9.56226L90.6102 16.3309C90.2137 17.26 89.5527 17.7909 88.7596 17.7909C88.4952 17.7909 88.2308 17.7909 87.9664 17.6581L88.2308 16.7291C88.363 16.8618 88.6274 16.8618 88.7596 16.8618C89.024 16.8618 89.1561 16.8618 89.2883 16.7291C89.4205 16.5964 89.5527 16.4637 89.6849 16.1982L89.9493 15.5346L87.3055 9.69498H88.4952L90.478 14.2074L92.3287 9.69498H93.6506V9.56226Z" fill="white" stroke="white" stroke-width="0.2" stroke-miterlimit="10"/>
<path d="M94.8402 17.5254V9.56226H100.524V17.5254H99.4669V10.4913H95.7655V17.5254H94.8402Z" fill="white" stroke="white" stroke-width="0.2" stroke-miterlimit="10"/>
<path d="M102.375 17.5254V9.56226H103.433V13.013H107.398V9.56226H108.456V17.5254H107.398V13.942H103.433V17.5254H102.375Z" fill="white" stroke="white" stroke-width="0.2" stroke-miterlimit="10"/>
<path d="M116.784 16.4638C115.991 17.2601 115.065 17.6583 113.876 17.6583C112.686 17.6583 111.761 17.2601 110.967 16.4638C110.174 15.6675 109.778 14.7385 109.778 13.544C109.778 12.3495 110.174 11.4205 110.967 10.6242C111.761 9.82784 112.686 9.42969 113.876 9.42969C115.065 9.42969 115.991 9.82784 116.784 10.6242C117.577 11.4205 117.974 12.3495 117.974 13.544C117.841 14.7385 117.445 15.6675 116.784 16.4638ZM111.628 15.8002C112.157 16.3311 112.95 16.7292 113.743 16.7292C114.537 16.7292 115.33 16.4638 115.859 15.8002C116.387 15.2693 116.784 14.473 116.784 13.544C116.784 12.6149 116.519 11.8186 115.859 11.2878C115.33 10.7569 114.537 10.3587 113.743 10.3587C112.95 10.3587 112.157 10.6242 111.628 11.2878C111.1 11.8186 110.703 12.6149 110.703 13.544C110.703 14.473 111.1 15.2693 111.628 15.8002Z" fill="white" stroke="white" stroke-width="0.2" stroke-miterlimit="10"/>
<path d="M122.071 17.5254V9.56226H124.98C125.641 9.56226 126.169 9.82769 126.566 10.2259C126.962 10.624 127.227 11.1549 127.227 11.8185C127.227 12.2166 127.095 12.4821 126.962 12.8802C126.83 13.1457 126.566 13.4111 126.169 13.5438C126.566 13.6766 126.83 13.942 127.095 14.2074C127.359 14.4729 127.491 14.871 127.491 15.4019C127.491 16.0655 127.227 16.5964 126.83 16.9945C126.302 17.3927 125.773 17.6581 125.112 17.6581H122.071V17.5254ZM123.129 13.013H124.98C125.376 13.013 125.641 12.8802 125.905 12.6148C126.169 12.3494 126.302 12.0839 126.302 11.8185C126.302 11.553 126.169 11.2876 125.905 11.0222C125.641 10.7567 125.376 10.624 124.98 10.624H123.129V13.013ZM123.129 16.5964H125.244C125.641 16.5964 125.905 16.4637 126.169 16.1982C126.434 15.9328 126.566 15.6673 126.566 15.2692C126.566 15.0037 126.434 14.6056 126.169 14.3401C125.905 14.0747 125.641 13.942 125.244 13.942H123.261V16.5964H123.129Z" fill="white" stroke="white" stroke-width="0.2" stroke-miterlimit="10"/>
<defs>
<linearGradient id="paint0_linear" x1="29.0577" y1="11.7327" x2="6.87246" y2="33.9288" gradientUnits="userSpaceOnUse">
<stop stop-color="#00A0FF"/>
<stop offset="0.00657445" stop-color="#00A1FF"/>
<stop offset="0.2601" stop-color="#00BEFF"/>
<stop offset="0.5122" stop-color="#00D2FF"/>
<stop offset="0.7604" stop-color="#00DFFF"/>
<stop offset="1" stop-color="#00E3FF"/>
</linearGradient>
<linearGradient id="paint1_linear" x1="44.9746" y1="26.6599" x2="12.9722" y2="26.6599" gradientUnits="userSpaceOnUse">
<stop stop-color="#FFE000"/>
<stop offset="0.4087" stop-color="#FFBD00"/>
<stop offset="0.7754" stop-color="#FFA500"/>
<stop offset="1" stop-color="#FF9C00"/>
</linearGradient>
<linearGradient id="paint2_linear" x1="33.0615" y1="29.6932" x2="2.9766" y2="59.7929" gradientUnits="userSpaceOnUse">
<stop stop-color="#FF3A44"/>
<stop offset="1" stop-color="#C31162"/>
</linearGradient>
<linearGradient id="paint3_linear" x1="9.87708" y1="0.452209" x2="23.3113" y2="13.8929" gradientUnits="userSpaceOnUse">
<stop stop-color="#32A071"/>
<stop offset="0.0685" stop-color="#2DA771"/>
<stop offset="0.4762" stop-color="#15CF74"/>
<stop offset="0.8009" stop-color="#06E775"/>
<stop offset="1" stop-color="#00F076"/>
</linearGradient>
</defs>
</svg>
