<svg viewBox="0 0 56 56" xmlns="http://www.w3.org/2000/svg" class="d-none">

    <symbol id="bank" viewBox="0 0 56 56" fill="none" >
        <path d="M14.6657 24.3172H41.0796C41.6627 24.3172 42.1841 23.9168 42.3762 23.3235C42.5683 22.7303 42.39 22.0703 41.9371 21.6772L28.6753 10.2571C28.1745 9.82704 27.461 9.82704 26.9601 10.2646L13.8081 21.6847C13.3553 22.0777 13.1769 22.7377 13.3758 23.3309C13.5679 23.9242 14.0825 24.3172 14.6657 24.3172ZM27.8246 13.3124L37.1552 21.351H18.5626L27.8246 13.3124Z" fill="white"/>
        <path d="M42.6376 39.3338H13.109C12.3543 39.3338 11.7368 40.0012 11.7368 40.8169C11.7368 41.6327 12.3543 42.3001 13.109 42.3001H42.6376C43.3923 42.3001 44.0098 41.6327 44.0098 40.8169C44.0098 40.0012 43.3992 39.3338 42.6376 39.3338Z" fill="white"/>
        <path d="M16.471 27.2018V36.3601C16.471 37.1758 17.0885 37.8432 17.8432 37.8432C18.5978 37.8432 19.2153 37.1758 19.2153 36.3601V27.2018C19.2153 26.3861 18.5978 25.7187 17.8432 25.7187C17.0885 25.7187 16.471 26.3787 16.471 27.2018Z" fill="white"/>
        <path d="M36.5378 27.2018V36.3601C36.5378 37.1758 37.1553 37.8432 37.91 37.8432C38.6647 37.8432 39.2821 37.1758 39.2821 36.3601V27.2018C39.2821 26.3861 38.6647 25.7187 37.91 25.7187C37.1484 25.7187 36.5378 26.3787 36.5378 27.2018Z" fill="white"/>
        <path d="M29.8489 27.2018V36.3601C29.8489 37.1758 30.4663 37.8432 31.221 37.8432C31.9757 37.8432 32.5932 37.1758 32.5932 36.3601V27.2018C32.5932 26.3861 31.9757 25.7187 31.221 25.7187C30.4663 25.7187 29.8489 26.3787 29.8489 27.2018Z" fill="white"/>
        <path d="M23.1608 27.2018V36.3601C23.1608 37.1758 23.7783 37.8432 24.533 37.8432C25.2877 37.8432 25.9051 37.1758 25.9051 36.3601V27.2018C25.9051 26.3861 25.2877 25.7187 24.533 25.7187C23.7783 25.7187 23.1608 26.3787 23.1608 27.2018Z" fill="white"/>
        <circle cx="28" cy="28" r="27" stroke="#FF7D2D" stroke-width="2"/>
    </symbol>

    <symbol id="site" viewBox="0 0 56 56" fill="none" >
        <path d="M38.3191 17.1387H18.1655C16.9715 17.1387 16 18.1396 16 19.3699V32.7504C16 33.9806 16.9715 34.982 18.1655 34.982H27.3463V38.0154H24.715C24.2205 38.0154 23.8192 38.4289 23.8192 38.9384C23.8192 39.4469 24.2205 39.8613 24.715 39.8613H31.7132C32.2077 39.8613 32.609 39.4469 32.609 38.9384C32.609 38.4289 32.2077 38.0154 31.7132 38.0154H29.1379V34.982H38.3191C39.5128 34.982 40.4847 33.9806 40.4847 32.7504V19.3699C40.4847 18.1396 39.5128 17.1387 38.3191 17.1387ZM17.7916 19.3699C17.7916 19.1576 17.9591 18.9846 18.1655 18.9846H38.3191C38.5252 18.9846 38.6931 19.1576 38.6931 19.3704V32.7509C38.6931 32.9636 38.5252 33.1366 38.3191 33.1366H18.1655C17.9591 33.1362 17.7916 32.9631 17.7916 32.7509V19.3699Z" fill="#F4AB53"/>
        <circle cx="28" cy="28" r="27" stroke="#F4AC54" stroke-width="2"/>
    </symbol>

    <symbol id="cart" viewBox="0 0 56 56" fill="none" >
        <path d="M43.938 23.448H34.3594L30.7036 14.9343C30.532 14.5291 30.061 14.3424 29.6579 14.5172C29.2508 14.688 29.0633 15.1568 29.2389 15.558L32.6233 23.448H24.2221L27.6065 15.558C27.7781 15.1528 27.5905 14.688 27.1874 14.5172C26.7804 14.3463 26.3134 14.5331 26.1418 14.9343L22.4859 23.452H12.5402C12.1011 23.452 11.7419 23.8096 11.7419 24.2466C11.7419 24.6836 12.1011 25.0411 12.5402 25.0411H13.0191L16.4754 38.2428C16.5672 38.5924 16.8865 38.8387 17.2496 38.8387H39.4321C39.7993 38.8387 40.1146 38.5924 40.2064 38.2388L43.5709 25.0451H43.938C44.3771 25.0451 44.7363 24.6876 44.7363 24.2505C44.7363 23.8056 44.3771 23.448 43.938 23.448ZM38.8095 37.2416H17.8683L17.078 34.2263H37.3647C37.8037 34.2263 38.1629 33.8687 38.1629 33.4317C38.1629 32.9947 37.8037 32.6371 37.3647 32.6371H16.659L15.8727 29.6337H38.4383C38.8773 29.6337 39.2365 29.2762 39.2365 28.8391C39.2365 28.4021 38.8773 28.0446 38.4383 28.0446H15.4576L14.6714 25.0411H23.0128H33.8286H41.9146L38.8095 37.2416Z" fill="#EA8D26"/>
        <circle cx="28" cy="28" r="27" stroke="#EA8D26" stroke-width="2"/>
    </symbol>

    <symbol id="mobile" viewBox="0 0 56 56" fill="none" >
        <path d="M36.6017 39.9808V15.2713C36.6017 14.0221 35.5856 13 34.3304 13H21.2524C20.0032 13 18.9811 14.0161 18.9811 15.2713V39.9868C18.9811 41.236 19.9972 42.2581 21.2524 42.2581H34.3304C35.5796 42.2521 36.6017 41.236 36.6017 39.9808ZM20.4455 18.2659H35.1313V34.8942H20.4455V18.2659ZM21.2524 14.4644H34.3304C34.7727 14.4644 35.1373 14.823 35.1373 15.2713V16.8015H20.4455V15.2713C20.4455 14.823 20.8101 14.4644 21.2524 14.4644ZM20.4455 39.9808V36.3527H35.1313V39.9808C35.1313 40.4231 34.7727 40.7877 34.3244 40.7877H21.2524C20.8101 40.7877 20.4455 40.4291 20.4455 39.9808Z" fill="#E5CC60"/>
        <path d="M29.0586 38.1945H26.0879C25.6815 38.1945 25.3527 38.5232 25.3527 38.9296C25.3527 39.3361 25.6815 39.6648 26.0879 39.6648H29.0586C29.465 39.6648 29.7937 39.3361 29.7937 38.9296C29.7937 38.5232 29.465 38.1945 29.0586 38.1945Z" fill="#E5CC60"/>
        <circle cx="28" cy="28" r="27" stroke="#E6CE62" stroke-width="2"/>
    </symbol>

    <symbol id="bottles" viewBox="0 0 56 56" fill="none" >
        <path fill-rule="evenodd" clip-rule="evenodd" d="M17.0537 10.8388C17.0537 10.3399 17.4485 9.93555 17.9354 9.93555H21.4623C21.9493 9.93555 22.344 10.3399 22.344 10.8388V19.871C22.344 20.3698 21.9493 20.7742 21.4623 20.7742C20.9753 20.7742 20.5806 20.3698 20.5806 19.871V11.742H18.8171V19.871C18.8171 20.3698 18.4224 20.7742 17.9354 20.7742C17.4485 20.7742 17.0537 20.3698 17.0537 19.871V10.8388Z" fill="white"/>
        <path fill-rule="evenodd" clip-rule="evenodd" d="M18.8172 19.0238C15.3377 19.4683 12.6452 22.5089 12.6452 26.1937V40.6452C12.6452 41.6429 13.4347 42.4517 14.4086 42.4517H24.9892C25.9632 42.4517 26.7527 41.6429 26.7527 40.6452V26.1937C26.7527 22.5089 24.0602 19.4683 20.5807 19.0238V20.8493C23.0827 21.2793 24.9892 23.5084 24.9892 26.1937V40.6452H14.4086V26.1937C14.4086 23.5084 16.3152 21.2793 18.8172 20.8493V19.0238Z" fill="white"/>
        <path fill-rule="evenodd" clip-rule="evenodd" d="M21.4629 17.1614H17.936V15.3549H21.4629V17.1614Z" fill="white"/>
        <path fill-rule="evenodd" clip-rule="evenodd" d="M25.8716 28.9029H13.5275V27.0965H25.8716V28.9029Z" fill="white"/>
        <path fill-rule="evenodd" clip-rule="evenodd" d="M25.8716 36.1291H13.5275V34.3226H25.8716V36.1291Z" fill="white"/>
        <path fill-rule="evenodd" clip-rule="evenodd" d="M33.0426 10.8388C33.0426 10.34 33.4373 9.93561 33.9243 9.93561H37.4512C37.9381 9.93561 38.3329 10.34 38.3329 10.8388V19.8711C38.3329 20.3699 37.9381 20.7743 37.4512 20.7743C36.9642 20.7743 36.5694 20.3699 36.5694 19.8711V11.7421H34.806V19.8711C34.806 20.3699 34.4112 20.7743 33.9243 20.7743C33.4373 20.7743 33.0426 20.3699 33.0426 19.8711V10.8388Z" fill="white"/>
        <path fill-rule="evenodd" clip-rule="evenodd" d="M34.8061 19.0239C31.3266 19.4683 28.6341 22.5089 28.6341 26.1937V40.6453C28.6341 41.643 29.4236 42.4518 30.3975 42.4518H40.9781C41.952 42.4518 42.7415 41.643 42.7415 40.6453V26.1937C42.7415 22.5089 40.0491 19.4683 36.5695 19.0239V20.8493C39.0716 21.2793 40.9781 23.5085 40.9781 26.1937V40.6453H30.3975V26.1937C30.3975 23.5085 32.304 21.2793 34.8061 20.8493V19.0239Z" fill="white"/>
        <path fill-rule="evenodd" clip-rule="evenodd" d="M37.4518 17.1614H33.9249V15.355H37.4518V17.1614Z" fill="white"/>
        <path fill-rule="evenodd" clip-rule="evenodd" d="M41.8604 36.129H29.5164V34.3225H41.8604V36.129Z" fill="white"/>
        <circle cx="28" cy="28" r="27" stroke="#BFD243" stroke-width="2"/>
    </symbol>

    <symbol id="cow" viewBox="0 0 56 56" fill="none">
        <path fill-rule="evenodd" clip-rule="evenodd" d="M23.193 15.6968C21.2092 15.8812 19.7007 17.4493 19.6266 19.309L19.5945 20.1144H14.6694C14.851 23.1461 16.8531 25.6813 19.584 26.6077L20.19 26.8133L20.1473 27.4596C20.1357 27.6363 20.1297 27.8147 20.1297 27.9945V31.5382C20.1297 35.8902 23.6101 39.4182 27.9033 39.4182C32.1966 39.4182 35.6769 35.8902 35.6769 31.5382V27.9945C35.6769 27.8146 35.671 27.6363 35.6593 27.4596L35.6166 26.8132L36.2226 26.6076C38.9534 25.6812 40.9555 23.146 41.1371 20.1144H36.212L36.1799 19.309C36.1058 17.4493 34.5972 15.8812 32.6134 15.6968V20.1144H23.193V15.6968ZM18.0653 18.4359C18.56 15.8837 20.8726 14.0001 23.5854 14.0001C23.7558 14.0001 23.9247 14.0075 24.0917 14.022L24.8489 14.0878V18.4359H30.9575V14.0878L31.7148 14.022C31.8817 14.0075 32.0506 14.0001 32.2211 14.0001C34.9338 14.0001 37.2465 15.8837 37.7411 18.4359H42.7596L42.7966 19.2358C42.8031 19.3777 42.8065 19.5205 42.8065 19.6639C42.8065 23.4126 40.5457 26.6242 37.3328 27.9775C37.3328 27.9832 37.3328 27.9889 37.3328 27.9945V31.5382C37.3328 36.8173 33.1111 41.0968 27.9033 41.0968C22.6955 41.0968 18.4738 36.8173 18.4738 31.5382V27.9945C18.4738 27.9889 18.4738 27.9832 18.4738 27.9775C15.2608 26.6243 13 23.4127 13 19.6639C13 19.5204 13.0033 19.3777 13.0099 19.2358L13.0469 18.4359H18.0653Z" fill="white"/>
        <circle cx="23.7921" cy="27.3585" r="1.3968" fill="white"/>
        <circle cx="32.1168" cy="27.3585" r="1.3968" fill="white"/>
        <circle cx="28" cy="28" r="27" stroke="#A4D54D" stroke-width="2"/>
    </symbol>

</svg>
