<svg width="53" height="52" viewBox="0 0 53 52" fill="none" xmlns="http://www.w3.org/2000/svg">
<rect x="0.517487" width="52" height="52" rx="10" fill="url(#paint0_linear)"/>
<path d="M38.4591 19.8004C38.6249 19.24 38.4591 18.8276 37.6611 18.8276H35.0208C34.3484 18.8276 34.0391 19.1818 33.8732 19.5763C33.8732 19.5763 32.5285 22.8531 30.6277 24.9779C30.0137 25.5921 29.7312 25.7893 29.3951 25.7893C29.2293 25.7893 28.9737 25.5921 28.9737 25.0317V19.8004C28.9737 19.128 28.7853 18.8276 28.2295 18.8276H24.0785C23.6571 18.8276 23.4061 19.1415 23.4061 19.4328C23.4061 20.0693 24.3564 20.2172 24.4551 22.0103V25.9014C24.4551 26.7531 24.3026 26.9099 23.9665 26.9099C23.0699 26.9099 20.8913 23.6197 19.6003 19.8542C19.3403 19.1235 19.0847 18.8276 18.4078 18.8276H15.7674C15.0143 18.8276 14.8619 19.1818 14.8619 19.5763C14.8619 20.2755 15.7584 23.7497 19.0353 28.34C21.2184 31.4734 24.2936 33.1725 27.0908 33.1725C28.7718 33.1725 28.978 32.7959 28.978 32.1459C28.978 29.1514 28.8256 28.8689 29.6684 28.8689C30.0584 28.8689 30.7308 29.0662 32.2999 30.5768C34.0928 32.3699 34.3887 33.1724 35.3928 33.1724H38.0332C38.7863 33.1724 39.1674 32.7959 38.9477 32.0516C38.4456 30.4872 35.0522 27.2686 34.8998 27.0534C34.5098 26.5514 34.6218 26.3271 34.8998 25.8788C34.9043 25.8745 38.1273 21.3379 38.4591 19.8004Z" fill="white"/>
<defs>
<linearGradient id="paint0_linear" x1="26.5175" y1="0" x2="26.5175" y2="52" gradientUnits="userSpaceOnUse">
<stop stop-color="#F76201"/>
<stop offset="1" stop-color="#FF4D00"/>
</linearGradient>
</defs>
</svg>
