<svg width="53" height="52" viewBox="0 0 53 52" fill="none" xmlns="http://www.w3.org/2000/svg">
<rect x="0.275696" width="52" height="52" rx="10" fill="url(#paint0_linear)"/>
<path d="M39.1559 21.5263C39.1559 21.5263 38.9096 19.7886 38.1546 19.0219C37.1954 18.0182 36.1202 18.0131 35.6276 17.9535C32.0976 17.6987 26.7989 17.6987 26.7989 17.6987C26.7989 17.6987 21.4993 17.6987 17.9702 17.9543C17.4776 18.0131 16.4023 18.0182 15.4431 19.0228C14.6865 19.7886 14.4411 21.5263 14.4411 21.5263C14.4411 21.5263 14.1889 23.2244 14.1889 25.2647V27.7876C14.1889 29.8279 14.4411 31.6034 14.4411 31.6034C14.4411 31.6034 14.6865 33.3402 15.4431 34.1061C16.4023 35.1107 17.6625 35.0796 18.2241 35.1846C20.2417 35.378 26.7989 35.3536 26.7989 35.3536C26.7989 35.3536 32.0976 35.4293 35.6276 35.1745C36.1202 35.1157 37.1954 35.1107 38.1546 34.1061C38.9096 33.3411 39.1559 31.6034 39.1559 31.6034C39.1559 31.6034 39.4089 29.8287 39.4089 27.7884V25.2656C39.4089 23.2244 39.1559 21.5263 39.1559 21.5263ZM24.1124 29.8943V23.169L30.8377 26.5316L24.1124 29.8943Z" fill="white"/>
<defs>
<linearGradient id="paint0_linear" x1="26.2757" y1="0" x2="26.2757" y2="52" gradientUnits="userSpaceOnUse">
<stop stop-color="#F76201"/>
<stop offset="1" stop-color="#FF4D00"/>
</linearGradient>
</defs>
</svg>
